<?xml version="1.0" encoding="UTF-8" standalone="no"?>
<!-- Created with Inkscape (http://www.inkscape.org/) -->

<svg
   width="52.396866mm"
   height="52.41058mm"
   viewBox="0 0 52.396866 52.41058"
   version="1.1"
   id="svg1"
   xml:space="preserve"
   xmlns="http://www.w3.org/2000/svg"
   xmlns:svg="http://www.w3.org/2000/svg"><defs
     id="defs1" /><g
     id="layer5"
     style="display:inline"
     transform="translate(-121.9767,-10.242237)"><g
       id="g20"
       transform="translate(-17.330208,-23.547917)"><path
         id="path19"
         style="fill:#f2f2f2;fill-opacity:1;stroke:#000000;stroke-opacity:1"
         d="m 101.49168,54.269156 c -13.633679,0.330912 -27.399253,3.819268 -40.244415,10.257268 -19.245229,9.645717 -33.062332,23.46471 -42.70805,42.709946 -6.064086,12.09911 -9.3485571,24.40179 -10.2005456,38.17405 -0.6687541,10.81031 1.4728479,24.60387 5.4944926,35.70096 5.27759,14.56268 14.052978,28.09943 24.590973,37.84318 17.068526,15.78207 39.378103,25.03602 62.700745,26.0147 4.40913,0.18502 11.89006,-0.40428 17.36267,-1.32163 22.42143,-3.7584 43.64435,-15.6704 57.59385,-32.39406 14.58752,-17.48855 22.84582,-39.73065 22.84582,-61.65705 0,-20.77824 -7.4296,-41.96683 -20.61853,-58.898463 -15.09591,-19.379765 -38.06593,-32.31767 -63.26607,-35.695293 -4.47449,-0.599725 -9.00585,-0.843924 -13.55094,-0.733608 z"
         transform="matrix(0.27331317,0,0,0.27331317,137.19769,19.101371)" /><path
         style="display:inline;fill:#000000"
         d="M 101.22632,242.55113 C 78.478011,241.59655 56.709696,232.56516 40.067175,217.17699 29.860589,207.73967 21.256115,194.49116 16.108602,180.28741 12.215307,169.54448 10.113787,155.9146 10.754297,145.56085 c 0.833951,-13.48069 4.022057,-25.41331 9.949653,-37.2401 9.441416,-18.83761 22.791013,-32.187209 41.628618,-41.628624 16.718528,-8.379333 35.002239,-11.622404 52.387502,-9.292225 24.58431,3.295082 46.99295,15.933039 61.67749,34.784689 12.85698,16.50548 20.11033,37.21239 20.11033,57.41116 0,21.31635 -8.05822,43.05026 -22.2858,60.10729 -13.53535,16.22714 -34.29361,27.89727 -56.13445,31.55835 -5.27069,0.8835 -12.80623,1.4599 -16.86132,1.28974 z m 8.77635,-4.86708 c 2.23077,-0.1554 4.15856,-0.38303 4.28398,-0.50586 0.12542,-0.12282 0.14327,-1.18094 0.0397,-2.35138 l -0.18838,-2.12807 -0.77131,0.15426 c -0.42423,0.0848 -1.81129,0.16878 -3.08237,0.18653 l -2.31106,0.0323 -0.0872,-0.764 c -0.0709,-0.62083 -0.005,-0.73241 0.35211,-0.59541 0.24164,0.0927 1.45239,0.0907 2.69056,-0.004 2.65179,-0.20384 2.7718,-0.34532 2.37627,-2.80136 l -0.25697,-1.5956 -2.57953,0.14214 -2.57953,0.14214 -0.14578,-0.55747 c -0.0802,-0.3066 -0.0838,-0.61945 -0.008,-0.69522 0.0758,-0.0758 1.38532,-0.18393 2.91013,-0.24037 l 2.77238,-0.10263 -0.0763,-2.15243 -0.0764,-2.15242 -4.39487,0.0298 c -5.36185,0.0363 -6.221,0.16796 -6.37562,0.9768 -0.0628,0.32827 0.033,3.79478 0.21288,7.70337 0.24618,5.35051 0.41416,7.16178 0.67979,7.33017 0.46855,0.29701 1.76582,0.28705 6.61563,-0.0508 z m -11.072305,-0.35187 c 0.07805,-0.20339 0.225237,-1.21543 0.327078,-2.24895 l 0.185166,-1.87915 h -0.863577 c -0.73915,0 -4.223789,-0.52587 -4.436825,-0.66956 -0.03996,-0.0269 0.0974,-1.16725 0.30524,-2.53399 0.820944,-5.39844 1.05654,-8.18085 0.721129,-8.51658 -0.18355,-0.18372 -1.304574,-0.35695 -2.650203,-0.40953 l -2.332095,-0.0911 -0.29562,2.0755 c -0.162592,1.14152 -0.426414,3.20659 -0.586273,4.58903 -0.159858,1.38245 -0.40843,3.40651 -0.552382,4.49792 -0.143951,1.09141 -0.283386,2.51711 -0.309853,3.16823 l -0.04812,1.18386 1.852083,0.32943 c 5.238402,0.93176 8.448831,1.11842 8.684255,0.50491 z m 22.536575,-0.96589 c 0.58209,-0.15093 1.49015,-0.45939 2.01792,-0.68546 l 0.95959,-0.41104 -0.21853,-0.70213 c -0.12019,-0.38616 -0.51231,-1.59509 -0.87139,-2.68649 -0.35908,-1.09141 -0.72936,-2.34157 -0.82285,-2.77813 l -0.16998,-0.79375 3.00118,2.98138 3.00118,2.98139 0.91707,-0.16655 c 1.335,-0.24244 3.50528,-0.8729 3.92913,-1.14141 0.38863,-0.24619 0.42926,-0.005 -1.07322,-6.3746 -0.92062,-3.90297 -2.61043,-8.99583 -2.98481,-8.99583 -0.37702,0 -2.80066,0.6941 -3.80863,1.09074 -0.43986,0.17309 -0.57071,0.37621 -0.44812,0.69567 0.0952,0.24816 0.40853,1.34673 0.69621,2.44125 0.28769,1.09452 0.6977,2.43894 0.91114,2.98759 0.72311,1.85876 0.3931,1.74235 -1.92703,-0.67977 -1.27331,-1.32928 -2.70503,-2.76319 -3.18161,-3.18647 l -0.8665,-0.7696 -1.38246,0.18292 c -2.00559,0.26538 -3.71002,1.07 -3.52339,1.66331 0.0812,0.25803 0.44939,1.8363 0.81828,3.50727 0.36888,1.67097 0.89315,3.75456 1.16503,4.63021 0.27188,0.87565 0.75514,2.54341 1.07391,3.70614 0.80791,2.94685 0.86832,3.0011 2.78788,2.50336 z m -39.819788,-2.93416 c 2.284586,-0.99728 3.602012,-2.75339 4.50291,-6.00231 1.030295,-3.71556 -0.423255,-7.26969 -3.683878,-9.00758 -3.800337,-2.02556 -6.793089,-2.33595 -9.572753,-0.99283 -1.817723,0.87832 -2.790013,2.17582 -3.80065,5.07189 -1.385745,3.97097 -0.682851,7.0611 2.081367,9.1503 1.509385,1.1408 1.833008,1.30053 4.123004,2.03502 2.050318,0.65762 4.483969,0.56008 6.35,-0.25449 z m -5.049951,-4.71425 c -0.376379,-0.11406 -0.998235,-0.41306 -1.381902,-0.66445 -1.761539,-1.15421 -0.836784,-5.14382 1.391554,-6.00349 0.886911,-0.34217 2.847245,0.25942 3.485116,1.06951 0.798123,1.01361 0.669678,2.88749 -0.288598,4.21035 -1.140057,1.5738 -1.738455,1.83287 -3.20617,1.38808 z m 69.501889,-1.12842 c 3.08267,-1.52099 5.04218,-3.71059 4.52554,-5.05693 -0.16924,-0.44104 -4.31797,-2.12221 -4.68196,-1.89725 -0.14649,0.0905 -0.26635,0.37726 -0.26635,0.63716 0,0.54324 -0.60241,1.10791 -1.6661,1.56173 -1.68965,0.72089 -3.17061,0.13302 -4.10387,-1.62905 -1.06719,-2.01492 -0.57347,-3.43643 1.56336,-4.50126 1.06593,-0.53118 1.47754,-0.61926 1.88207,-0.40276 0.28478,0.15241 0.54307,0.23769 0.57398,0.18952 0.0309,-0.0482 0.31537,-1.1562 0.63212,-2.46228 0.39404,-1.62481 0.49007,-2.46033 0.3041,-2.64584 -0.14949,-0.14912 -1.06922,-0.26994 -2.04384,-0.26849 -1.48831,0.002 -2.08974,0.15531 -3.75641,0.95625 -4.59136,2.20644 -6.65205,6.04235 -5.30635,9.87761 0.95194,2.71304 2.49327,4.78054 4.3475,5.83164 l 1.62031,0.9185 2.05632,0.004 2.05631,0.004 z m -82.920112,-1.54929 c 0.398973,-0.64376 1.205544,-2.09127 1.792382,-3.2167 0.586837,-1.12543 1.959585,-3.52739 3.050551,-5.33768 1.090966,-1.81029 1.983344,-3.3898 1.983062,-3.51001 -7.04e-4,-0.30105 -2.299214,-1.83103 -3.489383,-2.32267 l -0.976354,-0.40331 -0.572333,0.80376 c -0.314784,0.44208 -1.017607,1.60156 -1.561829,2.57663 -0.544222,0.97507 -1.579933,2.78488 -2.301579,4.02181 -0.721646,1.23693 -1.774942,3.10759 -2.340658,4.15704 l -1.028574,1.90807 0.487813,0.53903 c 0.573253,0.63344 3.561598,2.17778 3.95823,2.04557 0.150297,-0.0501 0.5997,-0.61779 0.998672,-1.26154 z m 92.897962,-5.38666 c 0.96441,-0.65447 5.27122,-4.14915 6.59886,-5.35452 0.40018,-0.36333 0.72245,-0.85886 0.71615,-1.10119 -0.006,-0.24233 -0.5925,-1.08924 -1.30267,-1.88202 l -1.2912,-1.44143 -1.14474,1.05367 c -0.6296,0.57953 -1.71611,1.44627 -2.41447,1.92609 -1.02441,0.70385 -1.34391,0.81085 -1.65365,0.55379 -0.21114,-0.17523 -0.3839,-0.40589 -0.3839,-0.51257 0,-0.10667 0.94835,-0.93947 2.10744,-1.85066 l 2.10744,-1.65671 -0.36584,-0.69663 c -0.20121,-0.38314 -0.83278,-1.14859 -1.40347,-1.701 l -1.03763,-1.00437 -0.34262,0.41282 c -0.18843,0.22706 -1.08869,0.99914 -2.00056,1.71576 l -1.65795,1.30293 -0.42893,-0.47396 -0.42893,-0.47397 1.13021,-1.03782 c 0.62162,-0.5708 1.5767,-1.31243 2.1224,-1.64806 0.5457,-0.33563 0.99219,-0.71728 0.99219,-0.8481 0,-0.46434 -1.8328,-3.09455 -2.27446,-3.26403 -0.24686,-0.0947 -0.65615,-0.0204 -0.90953,0.16506 -2.5889,1.89537 -7.66393,6.06489 -7.66393,6.2965 0,0.11604 0.50602,0.83442 1.12448,1.5964 0.61846,0.76199 1.5412,1.94224 2.05052,2.62278 0.50932,0.68055 1.58089,2.04447 2.38125,3.03095 0.80037,0.98647 2.0251,2.49582 2.72163,3.3541 0.69653,0.85828 1.36452,1.56051 1.48443,1.56051 0.11991,0 0.64527,-0.28994 1.16748,-0.64432 z M 52.088079,218.08205 c 1.050563,-0.60452 2.34216,-1.34866 2.870216,-1.65365 0.528056,-0.30499 1.897275,-1.08382 3.042709,-1.73074 2.712079,-1.53172 5.581295,-3.38611 5.808836,-3.75428 0.175947,-0.28468 -2.584475,-2.96022 -3.688302,-3.57488 l -0.544656,-0.30329 -1.466428,1.031 c -0.806535,0.56705 -1.822451,1.29885 -2.257592,1.62621 -1.886362,1.41914 -3.731304,2.76519 -4.034451,2.94349 -0.414926,0.24404 -0.273015,-0.18577 0.862678,-2.61287 2.150757,-4.59639 2.772313,-5.98981 2.772313,-6.21503 0,-0.31361 -4.011812,-3.70072 -4.387379,-3.7042 -0.157486,-0.001 -0.415485,0.38431 -0.573332,0.85725 -0.157847,0.47294 -0.668053,1.8124 -1.133791,2.97656 -1.068604,2.6711 -2.442129,6.47566 -3.407597,9.43879 l -0.747785,2.29503 0.957754,0.89609 c 1.952614,1.82691 2.974398,2.58364 3.488618,2.58364 0.290442,0 1.387627,-0.49461 2.438189,-1.09912 z m 63.240791,-4.42916 c 14.06965,-2.49083 25.3875,-8.59336 35.5577,-19.17252 9.37747,-9.75455 14.96661,-20.94683 17.19527,-34.43358 0.69129,-4.18335 0.69108,-16.95908 -3.4e-4,-21.16667 -1.52912,-9.30535 -4.67611,-17.4506 -9.68705,-25.0726 -2.77228,-4.21684 -4.14884,-5.89643 -8.46864,-10.33291 -8.75951,-8.996108 -20.34428,-15.344752 -32.42762,-17.770868 -3.32392,-0.667384 -7.5062,-1.195498 -9.46748,-1.195498 h -1.15396 l 0.96352,1.91823 c 0.52994,1.055026 1.02761,2.164027 1.10593,2.464447 0.11645,0.446692 0.49877,0.607712 2.09824,0.883713 1.07571,0.185622 2.96787,0.678063 4.20479,1.094314 1.23693,0.41625 3.65166,1.180972 5.36608,1.699381 9.02588,2.729274 17.4829,7.637271 23.48492,13.629381 3.94792,3.94139 9.38719,10.73991 11.25456,14.06703 5.1197,9.1218 7.90605,19.54491 7.87627,29.4633 -0.0418,13.90569 -5.67575,28.4432 -15.25086,39.35217 l -1.79716,2.04751 0.29875,1.10947 c 0.85032,3.15786 -1.6574,6.93321 -4.84384,7.29236 l -1.13764,0.12823 -0.50536,1.22183 c -1.18693,2.86974 -4.25851,4.61452 -7.0891,4.02689 -0.7664,-0.1591 -1.74637,-0.50275 -2.17772,-0.76366 l -0.78426,-0.47437 -1.19576,0.74096 c -1.21012,0.74986 -3.25463,1.27412 -5.00218,1.28266 -0.52584,0.003 -2.08435,0.36072 -3.46337,0.79589 -7.22621,2.28033 -16.11846,3.10626 -23.087132,2.14437 l -1.517348,-0.20944 -0.593921,0.6322 c -0.326656,0.34771 -1.453743,1.05714 -2.504638,1.57652 l -1.910718,0.94433 -2.195722,-0.12922 c -2.484404,-0.14621 -4.564244,-0.83866 -6.492346,-2.16151 -1.543657,-1.05908 -4.595356,-4.53044 -5.3461,-6.08127 l -0.552849,-1.14203 -2.715145,-1.59741 c -8.327592,-4.8994 -14.928005,-11.34162 -19.898623,-19.42169 -0.837472,-1.36136 -1.555334,-2.51335 -1.59525,-2.55997 -0.166699,-0.1947 -5.670032,1.69582 -5.674691,1.94939 -0.0084,0.45447 3.097738,5.35806 5.103721,8.05725 2.251112,3.02903 9.812792,10.6679 12.750562,12.88072 10.490993,7.90214 22.019403,12.26407 34.331583,12.9898 4.928197,0.29049 13.278047,-0.058 16.944927,-0.70713 z m -23.961846,-4.11778 c 2.689223,-1.25203 4.716307,-4.13859 6.139387,-8.74249 1.483487,-4.79931 0.03186,-11.32158 -2.650918,-11.91082 -1.125314,-0.24716 -2.552427,0.54484 -3.17275,1.76077 -0.750567,1.47124 -1.391574,1.36405 -2.211845,-0.36986 -1.097412,-2.31974 -3.06722,-2.97605 -4.850283,-1.61604 -1.093755,0.83425 -1.650547,2.05211 -1.650547,3.61022 0,0.6317 -0.151167,1.35529 -0.335928,1.60796 l -0.335928,0.45941 -0.978491,-0.40884 c -1.233262,-0.51529 -3.09082,-0.52663 -3.809483,-0.0233 -1.277192,0.89458 -1.452206,4.01114 -0.382264,6.80716 1.477957,3.86225 5.954962,8.53618 8.832004,9.22049 1.816982,0.43218 3.968321,0.27513 5.407046,-0.3947 z m 34.630746,-5.71229 c 0.40084,-0.1524 1.24653,-0.75431 1.87929,-1.33757 1.24692,-1.14937 1.65874,-1.17434 3.00101,-0.18197 1.55045,1.14631 4.17274,1.1077 5.93852,-0.0874 1.01014,-0.68368 1.98056,-2.37839 1.98056,-3.45876 0,-0.94498 0.50619,-1.27132 2.3835,-1.53668 1.86806,-0.26405 2.72366,-0.74183 3.4411,-1.92156 0.82709,-1.36004 0.0888,-3.1373 -2.02183,-4.86676 l -1.18124,-0.96794 -1.11491,0.86664 c -1.38529,1.07682 -0.41465,0.37627 -2.49883,2.00105 -0.42563,0.58049 -3.21522,2.77201 -5.3249,4.18327 -2.61556,1.74966 -8.40259,4.63893 -10.19006,5.08756 -0.73904,0.18549 -0.86133,0.62561 -0.40878,1.47121 0.51165,0.95601 2.58153,1.33258 4.11666,0.74892 z m -18.15681,-1.75794 c 6.84923,-0.8083 10.83716,-1.99763 16.39338,-4.88905 4.29639,-2.23582 7.8368,-4.61882 11.31006,-7.61265 5.65217,-4.872 8.40402,-9.40357 9.89061,-16.28722 0.19593,-0.90725 0.33468,-3.17477 0.32379,-5.29167 -0.0322,-6.27153 -1.2174,-10.41823 -5.29128,-18.51318 l -2.52608,-5.01943 0.155,-1.33057 c 0.0852,-0.73182 0.33725,-2.46167 0.56001,-3.84411 0.63972,-3.97006 0.51511,-11.28311 -0.2547,-14.94896 -1.64608,-7.83857 -4.0195,-13.82241 -7.55597,-19.05 -2.74804,-4.06214 -7.79302,-8.385661 -12.5997,-10.797878 -3.21565,-1.613764 -8.19338,-3.254724 -10.53747,-3.473788 -0.40058,-0.03743 -0.64766,-0.43113 -1.01679,-1.620145 -0.76702,-2.470656 -1.02928,-3.071228 -1.24116,-2.842184 -0.10845,0.117237 -0.52906,1.073448 -0.93468,2.124913 -0.87801,2.275987 -1.06528,2.229739 -2.36359,-0.583711 -0.47137,-1.021466 -1.25952,-2.315127 -1.75145,-2.874801 l -0.894413,-1.017591 0.08791,3.027444 c 0.09908,3.411961 -0.105575,3.9025 -1.628167,3.902565 -1.442527,6.1e-5 -7.641876,2.028179 -10.050173,3.287915 -3.172564,1.659511 -4.104198,2.275472 -6.299892,4.165248 -3.832675,3.298683 -6.169716,6.056103 -8.707592,10.273883 -3.054965,5.07715 -5.489436,11.25033 -6.454629,16.36725 -0.838856,4.44714 -0.490345,10.60053 0.934817,16.50537 0.307072,1.27229 0.484877,2.60584 0.395121,2.96345 -0.08975,0.35762 -0.847013,1.20108 -1.682795,1.87435 -3.819056,3.07651 -7.73481,7.55649 -10.21235,11.68388 -4.685529,7.80573 -5.408651,16.80801 -1.60717,20.00797 1.209979,1.01852 2.090867,1.14263 2.741955,0.38633 0.28412,-0.33003 1.500541,-2.14787 2.703158,-4.03964 5.35411,-8.42225 9.323971,-12.97625 12.615854,-14.47218 1.584337,-0.71997 1.721006,-0.36496 0.304305,0.79046 -0.652404,0.53208 -1.697749,1.47665 -2.322988,2.09905 l -1.136797,1.13163 h 0.691171 c 0.380144,0 0.946474,-0.13663 1.258511,-0.30363 0.738039,-0.39499 4.907628,-1.49009 12.627038,-3.31637 10.551199,-2.49623 10.225268,-2.4255 17.859376,-3.87602 4.63256,-0.8802 9.72988,-1.3566 10.44133,-0.97585 0.7882,0.42184 0.68392,1.57805 -0.34272,3.80009 -3.2238,6.97748 -10.14673,13.60708 -17.333306,16.59886 -7.34303,3.05691 -16.710475,2.10188 -21.352422,-2.17691 -0.637086,-0.58725 -1.222502,-1.26989 -1.300925,-1.51697 -0.110908,-0.34944 -0.420883,-0.43819 -1.395156,-0.39943 l -1.252568,0.0498 -0.336282,1.66149 c -0.452728,2.23683 -0.846325,2.62575 -2.657301,2.62575 h -1.448376 l 0.176756,1.65365 c 0.430981,4.03205 2.372734,9.5365 4.466799,12.66241 0.525651,0.78466 1.943691,2.41015 3.151199,3.61221 l 2.195471,2.18556 0.160157,-0.77272 c 0.607624,-2.93161 2.623109,-4.2627 5.538144,-3.65755 l 0.935801,0.19427 0.06,-0.78745 c 0.355531,-4.66593 6.170242,-6.77604 8.814955,-3.19887 l 0.599332,0.81064 0.677055,-0.6302 c 0.970694,-0.90352 1.699885,-1.22403 2.784825,-1.22403 3.186421,0 5.270361,3.14501 5.610164,8.46667 0.133855,2.0963 -0.0454,3.39667 -0.869056,6.30434 l -0.174439,0.61581 3.012833,-0.0647 c 1.65707,-0.0356 4.38204,-0.22631 6.05549,-0.4238 z m -9.041253,-74.97872 c -3.363073,-0.23897 -5.051306,-0.66437 -5.80019,-1.46152 -1.286285,-1.36918 -0.343675,-3.81677 2.050039,-5.32314 1.06624,-0.67098 3.987676,-1.91992 5.990274,-2.56088 0.26123,-0.0836 0.64377,-0.55604 0.8501,-1.04984 1.90663,-4.56322 8.0877,-5.18604 11.28797,-1.1374 0.55715,0.70485 1.013,1.43899 1.013,1.63141 0,0.20163 0.44574,0.42517 1.0521,0.52761 1.6147,0.2728 5.01742,2.03638 6.46648,3.35149 0.99832,0.90602 1.30087,1.36246 1.30087,1.96252 0,2.26789 -0.76751,2.85831 -4.4304,3.40816 -4.54845,0.6828 -14.6555,1.01574 -19.780243,0.65159 z m 17.312593,-2.21473 c 2.00265,-0.21773 3.86419,-0.51522 4.13675,-0.66109 0.82772,-0.44298 0.94366,-1.56888 0.23941,-2.32484 -0.76742,-0.82376 -3.6125,-2.27224 -5.59526,-2.84864 l -1.51506,-0.44044 -1.03148,-1.63211 c -1.50485,-2.38114 -3.51207,-3.36346 -5.69638,-2.78777 -1.25728,0.33137 -3.35083,2.35888 -3.84402,3.72277 -0.20019,0.55362 -0.59764,1.01434 -1.0201,1.1825 -0.38068,0.15152 -1.5606,0.60283 -2.62206,1.0029 -2.439122,0.91931 -4.300808,2.19398 -4.72589,3.23574 -0.503694,1.23441 -0.01533,1.69786 2.048604,1.94406 2.602478,0.31045 15.537406,0.0514 19.625486,-0.39308 z m -29.351949,-1.86191 c -2.095609,-0.89554 -2.599911,-4.38079 -0.897571,-6.20315 0.600513,-0.64286 0.978372,-0.81271 1.807969,-0.81271 2.130846,0 3.344563,2.10756 2.717948,4.71959 -0.501515,2.09055 -1.955887,3.01097 -3.628346,2.29627 z m 39.721079,0.0184 c -3.02359,-1.30887 -2.28529,-7.03422 0.90709,-7.03422 0.76744,0 1.17299,0.19285 1.82908,0.86976 2.4577,2.5357 0.26952,7.46558 -2.73617,6.16446 z m -79.285717,55.1791 c 0.539906,-0.27109 1.611236,-0.69888 2.380734,-0.95064 1.068235,-0.34949 1.369156,-0.56141 1.272518,-0.89616 -0.568542,-1.96942 -0.718881,-3.0537 -0.723317,-5.21673 l -0.0051,-2.49003 -0.738746,0.38202 c -0.406311,0.21011 -1.288833,0.99385 -1.961162,1.74164 -1.46919,1.6341 -2.021398,3.26948 -2.021398,5.98644 0,2.18728 0.121176,2.28465 1.796478,1.44346 z m 42.288458,-2.43783 c 5.422072,-1.17473 9.592512,-3.61623 14.400039,-8.43021 1.68012,-1.68237 3.48078,-3.7137 4.00146,-4.51407 0.99807,-1.53419 2.86565,-5.12109 2.86565,-5.50382 0,-0.25516 -0.0151,-0.2538 -5.42396,0.48865 -4.45756,0.61186 -13.571427,2.57353 -24.60625,5.29626 -4.074583,1.00536 -7.654876,1.89748 -7.956206,1.9825 l -0.547872,0.15457 -0.01047,2.93589 -0.01047,2.9359 1.168523,1.16852 c 1.764116,1.76411 5.215437,3.18894 9.340878,3.85623 1.725078,0.27903 4.474572,0.12879 6.778686,-0.37042 z m -44.567013,-4.45608 c 0.310346,-0.52116 0.976373,-1.38352 1.480059,-1.91636 l 0.915793,-0.96878 -0.943267,-3.52913 c -2.999886,-11.22375 -3.005635,-19.86278 -0.02055,-30.88018 2.002546,-7.39103 6.366697,-15.90836 11.337054,-22.12604 7.525015,-9.41344 19.014579,-16.690649 31.733962,-20.099521 1.327371,-0.355744 3.365901,-0.949726 4.530068,-1.319961 1.164166,-0.370235 2.444088,-0.673171 2.84427,-0.673191 l 0.727605,-3.6e-5 v -1.338045 c 0,-0.735925 -0.137081,-1.882442 -0.304624,-2.547815 l -0.304623,-1.209769 -1.804599,0.16772 c -2.444741,0.227215 -6.899189,1.10395 -9.700871,1.909349 -10.381398,2.984337 -18.981911,8.030279 -27.008975,15.846229 -10.967998,10.67954 -17.282765,23.02587 -19.218684,37.57546 -0.584121,4.39002 -0.589994,14.26679 -0.01101,18.51038 0.740908,5.43035 2.303822,11.52592 3.886469,15.15772 l 0.547724,1.2569 0.374966,-1.43368 c 0.206231,-0.78852 0.628884,-1.86009 0.93923,-2.38125 z M 70.424,170.76241 c 0.297592,0 0.375235,-0.52009 0.375235,-2.51354 v -2.51354 h -0.79375 -0.79375 v 2.67414 2.67414 l 0.418515,-0.1606 c 0.230183,-0.0883 0.58737,-0.1606 0.79375,-0.1606 z m 83.03589,-5.71684 c 0.67604,-0.25943 0.49609,-1.87513 -0.47572,-4.27127 -1.19644,-2.94998 -3.00021,-5.86639 -5.7316,-9.26713 -2.16874,-2.70021 -7.11108,-7.84187 -7.32869,-7.62426 -0.0564,0.0564 0.49629,1.27552 1.22815,2.70923 3.30544,6.47539 5.54098,12.25009 5.99194,15.47797 l 0.17177,1.22957 1.75998,0.79329 c 2.58824,1.16662 3.37879,1.33839 4.38417,0.9526 z m 33.22684,-13.2465 c 0,-0.82706 0.21274,-1.17938 1.42935,-2.36721 0.79745,-0.77858 1.75698,-2.0743 2.17043,-2.93092 0.62809,-1.3013 0.74297,-1.87829 0.75346,-3.78436 l -0.0165,-1.79429 a 2.2043333,2.2043333 77.8176 0 0 -0.18794,-0.87058 l -0.54504,-1.23358 c -0.88806,-2.00996 -2.76214,-3.80415 -4.83651,-4.75383 -1.98358,-0.90811 -4.80191,-0.93396 -7.10162,-0.0651 -2.12391,0.80242 -4.33988,3.02917 -5.166,5.19114 -1.14656,3.00055 -0.55259,7.03076 1.35667,9.20528 0.64921,0.73941 0.76117,1.09851 0.76662,2.34456 7.7e-4,0.1713 0.009,0.32616 0.0191,0.47061 0.0463,0.6326 0.57456,1.20093 1.21093,1.21969 0.16421,0.005 0.33148,0.009 0.49099,0.0107 0.51895,0.007 0.97138,-0.46624 1.02065,-0.9864 0.026,-0.27454 0.0564,-0.58226 0.0892,-0.90004 0.0973,-0.94245 0.3285,-1.09896 0.60171,-1.09296 0.76983,0.0169 0.95014,0.0694 0.85599,1.40159 -0.0635,0.89845 0.0194,1.37912 0.33273,1.68864 0.47958,0.47374 1.4233,0.332 1.92795,0.0865 0.60025,-0.29195 0.50522,-0.45314 0.50858,-1.3865 0.005,-1.35574 0.3356,-1.36842 0.81873,-1.3894 0.77115,-0.0335 0.63511,1.36461 0.63511,1.36461 l 0.0347,0.81381 a 0.90340251,0.90340251 44.844695 0 0 0.86901,0.86431 l 0.85204,0.0317 c 0.59201,0.022 1.04745,-0.44218 1.0987,-1.03228 0.003,-0.0378 0.007,-0.0733 0.011,-0.10576 z m -2.01534,-6.59098 c -1.56495,-0.77204 -1.8767,-2.60892 -0.65084,-3.83478 0.57258,-0.57258 1.02441,-0.7734 1.74014,-0.7734 1.19188,0 2.51354,1.17876 2.51354,2.24175 0,1.09602 -0.69847,2.17119 -1.61894,2.49207 -1.04156,0.36309 -0.9861,0.3666 -1.9839,-0.12564 z m -8.50225,-1.23474 c -0.80739,-0.86498 -0.97639,-1.85074 -0.48141,-2.80793 0.51176,-0.98963 1.14917,-1.35926 2.34402,-1.35926 2.07117,0 3.09458,2.51033 1.65616,4.06241 -0.86991,0.93865 -2.68984,0.99285 -3.51877,0.10478 z M 21.309636,153.1827 c 0.174273,-0.20998 0.297764,-1.01366 0.274423,-1.78593 -0.06301,-2.08498 -0.05541,-2.11066 0.597733,-2.01786 l 0.595058,0.0846 0.193231,1.55381 c 0.226687,1.82282 0.534306,2.28264 1.527071,2.28264 1.043266,0 1.285942,-0.44533 1.375717,-2.52457 l 0.07949,-1.84105 h 0.528398 c 0.441636,0 0.571967,0.26575 0.79375,1.6185 0.381128,2.32468 1.154304,3.01611 2.374758,2.12369 0.380491,-0.27822 0.479997,-0.66276 0.442878,-1.71152 l -0.04788,-1.35267 0.942035,-1.23413 c 1.70437,-2.23285 1.83296,-2.62865 1.83936,-5.66158 l 0.0059,-2.77813 -0.907479,-1.67375 c -3.644971,-6.7228 -13.410222,-6.46238 -16.648165,0.44398 -0.595163,1.26945 -0.700606,1.85274 -0.700606,3.87561 v 2.38125 l 0.715379,1.52662 c 0.398316,0.85001 1.307127,2.10301 2.050521,2.8271 1.07811,1.05011 1.335141,1.47071 1.335141,2.18481 0,1.21414 0.6449,2.06043 1.570106,2.06043 0.410493,0 0.888938,-0.17181 1.063212,-0.3818 z m -3.258697,-8.51782 c -1.20744,-1.20744 -0.886089,-3.15106 0.652534,-3.94672 1.075347,-0.55608 2.163961,-0.28831 3.034661,0.74646 1.959618,2.32888 -1.529896,5.35755 -3.687195,3.20026 z m 8.054013,-0.51661 c -0.677798,-0.57033 -0.81405,-0.87639 -0.81405,-1.82856 0,-0.95218 0.136252,-1.25824 0.81405,-1.82857 2.604657,-2.19167 5.576527,1.50481 3.012316,3.74679 -0.902704,0.78927 -2.006824,0.7564 -3.012316,-0.0897 z m 22.315443,-39.82819 c 1.546513,-1.7201 1.795009,-2.56179 0.923285,-3.1273 -0.349863,-0.22696 -0.874473,-0.65464 -1.1658,-0.9504 -0.291328,-0.295758 -1.363124,-1.181393 -2.38177,-1.968078 -1.018646,-0.786686 -2.998622,-2.419937 -4.399947,-3.629447 -1.401326,-1.209511 -2.73066,-2.19911 -2.954077,-2.19911 -0.453293,0 -2.471957,2.169413 -2.919646,3.137677 l -0.288576,0.624135 1.065791,0.963365 c 1.024176,0.92575 6.672324,5.649508 9.058467,7.575938 0.632232,0.51043 1.305808,0.92805 1.496836,0.92805 0.191027,0 0.895474,-0.60967 1.565437,-1.35483 z M 157.15355,98.6874 c 1.16199,-1.360124 1.48652,-2.008322 1.00549,-2.008322 -0.26814,0 -4.0193,-3.432373 -4.00764,-3.667063 0.005,-0.09317 0.16411,-0.374372 0.3544,-0.624899 l 0.34599,-0.455505 1.82841,1.707427 c 1.00562,0.939084 2.03301,1.709608 2.28308,1.712275 0.25008,0.0027 0.93859,-0.650201 1.53004,-1.450818 l 1.07537,-1.455667 -0.9952,-0.859437 c -0.54736,-0.472691 -1.41015,-1.233289 -1.91733,-1.690219 l -0.92213,-0.830781 0.35354,-0.42599 c 0.19445,-0.234294 0.45579,-0.42599 0.58077,-0.42599 0.12497,0 1.05924,0.784876 2.07614,1.744169 l 1.84891,1.744169 1.21256,-0.9936 c 1.50109,-1.230034 1.83095,-1.792278 1.42124,-2.422498 -0.43427,-0.667994 -6.79314,-6.273845 -7.22539,-6.36976 -0.33737,-0.07486 -3.29512,2.830479 -5.60306,5.50377 -0.56535,0.654844 -1.89307,2.123888 -2.95048,3.264543 l -1.92257,2.073917 0.52889,0.742763 c 0.29089,0.408519 1.27377,1.376772 2.18417,2.151673 0.9104,0.774901 2.40377,2.097005 3.3186,2.938008 0.91483,0.841003 1.8231,1.529095 2.01838,1.529095 0.19528,0 0.9053,-0.644066 1.57782,-1.43126 z M 65.240502,89.819724 c 3.078907,-1.829145 4.34778,-3.20197 4.542462,-4.914604 l 0.09023,-0.793751 -1.984375,-0.700069 c -2.612845,-0.921787 -2.811338,-0.919801 -3.001305,0.03003 -0.185995,0.929974 -1.88194,2.125782 -3.012708,2.124256 -1.699675,-0.0023 -3.715756,-2.401659 -3.335001,-3.969029 0.354062,-1.457489 2.894815,-3.280005 3.672661,-2.63445 0.458694,0.380682 0.47008,0.349363 0.904552,-2.488042 0.383269,-2.503009 0.26809,-2.685215 -1.648773,-2.608262 -2.954467,0.118609 -6.67232,2.733365 -8.110386,5.704012 -0.781014,1.613359 -0.74758,4.112043 0.07847,5.864468 1.066067,2.26161 2.726867,4.081677 4.514919,4.947892 l 1.603196,0.776663 1.937036,-0.131317 1.937035,-0.131317 z m 79.076878,-1.354618 c 1.34551,-0.756704 2.94644,-3.11455 2.94644,-4.339526 0,-1.330778 -0.64187,-2.737184 -1.81778,-3.982961 -0.54944,-0.582083 -1.20279,-1.387899 -1.4519,-1.790702 -0.38483,-0.622259 -0.39547,-0.754422 -0.0707,-0.87904 0.65869,-0.252763 2.03725,0.668055 2.43875,1.628982 0.44867,1.073823 0.67423,1.097444 3.08013,0.322571 l 1.81916,-0.585898 -0.16714,-0.670873 c -0.39992,-1.605211 -1.03085,-2.423394 -2.73598,-3.547999 -2.45024,-1.616035 -3.24574,-1.983551 -4.42973,-2.046514 -2.31503,-0.123109 -3.42238,0.462821 -4.89498,2.590061 -1.38818,2.005282 -1.03283,3.540875 1.54946,6.6958 1.27796,1.561356 1.40939,2.120071 0.4987,2.120071 -0.84825,0 -2.0045,-0.956477 -2.45254,-2.028799 -0.40306,-0.964656 -0.89513,-1.087055 -1.94877,-0.484743 -0.3638,0.207968 -0.96612,0.382343 -1.33849,0.387499 -0.37237,0.0052 -0.89416,0.168143 -1.15954,0.362192 l -0.4825,0.352816 0.32187,0.975289 c 0.77703,2.354411 5.33347,5.462829 8.00763,5.462829 0.84554,0 1.67439,-0.196008 2.28793,-0.541055 z m -39.923,-3.838988 c 0.004,-0.15345 -0.46931,-0.307101 -1.0514,-0.341447 -0.58208,-0.03435 -1.05833,-0.0013 -1.05833,0.07349 0,0.07476 0.26739,0.686288 0.59419,1.358946 l 0.59418,1.223015 0.45721,-1.017499 c 0.25147,-0.559625 0.46033,-1.14305 0.46415,-1.296501 z M 76.144598,83.478824 c 2.108188,-0.81749 2.85672,-1.20389 2.85672,-1.474672 0,-0.168883 -0.357187,-1.36376 -0.79375,-2.655283 -0.436562,-1.291523 -0.79375,-2.375851 -0.79375,-2.409619 0,-0.03377 0.625078,-0.25591 1.389063,-0.49365 0.763984,-0.23774 1.609016,-0.553215 1.877848,-0.701055 0.268832,-0.147839 0.509352,-0.230784 0.534488,-0.184321 0.136159,0.251679 0.796205,2.152933 1.269353,3.656354 0.297683,0.945885 0.566265,1.747435 0.596849,1.781221 0.09774,0.107976 3.495881,-0.916975 4.084399,-1.231941 0.311713,-0.166823 0.56675,-0.481866 0.56675,-0.700094 0,-0.584775 -1.815896,-6.688799 -2.35583,-7.918978 -0.25548,-0.582084 -0.732486,-1.951303 -1.060012,-3.042709 -0.810825,-2.701885 -1.171465,-3.224498 -2.082336,-3.017564 -1.11123,0.252451 -3.765509,1.221304 -3.887746,1.419088 -0.06009,0.09723 0.164999,0.943143 0.500197,1.879814 0.335198,0.93667 0.680678,2.001509 0.767734,2.366308 l 0.158282,0.663271 -1.64254,0.517406 c -0.903397,0.284574 -1.785172,0.559186 -1.9595,0.610249 -0.195512,0.05727 -0.591492,-0.800636 -1.033452,-2.239011 -0.394071,-1.282519 -0.744283,-2.368291 -0.77825,-2.412826 -0.12528,-0.16426 -3.450409,0.804438 -4.121453,1.200688 l -0.693866,0.409726 0.375756,1.351946 c 0.206666,0.743571 0.546871,1.975923 0.756011,2.73856 0.20914,0.762637 0.624919,2.072324 0.923953,2.910417 0.299035,0.838092 0.946781,2.681635 1.439436,4.096763 0.492655,1.415128 0.971193,2.69505 1.063417,2.844271 0.206391,0.333949 1.227001,0.35176 2.042229,0.03564 z m 49.741092,-2.178178 c 3.7356,-0.791787 5.46295,-2.589358 6.40927,-6.669817 0.87704,-3.781695 -0.78554,-7.304301 -4.13253,-8.755848 -2.30364,-0.999063 -4.87932,-1.533487 -6.39665,-1.327232 -3.17397,0.431451 -5.25696,2.424041 -6.22445,5.954331 -0.90816,3.313808 -0.60957,5.57533 1.00068,7.579068 1.2344,1.536042 4.37022,2.945855 7.75618,3.487044 0.10198,0.0163 0.81635,-0.104096 1.5875,-0.267546 z m -3.67031,-5.380185 c -1.04899,-0.456301 -1.41001,-1.115467 -1.40948,-2.573469 5.4e-4,-1.503165 0.72197,-2.892204 1.77555,-3.418609 0.72247,-0.360973 1.0394,-0.376541 2.1135,-0.103815 2.56847,0.652161 2.9567,3.523199 0.79597,5.88628 -0.63378,0.693128 -1.96775,0.778493 -3.27554,0.209613 z m -19.93073,2.622093 c 2.18768,-0.232705 3.78729,-1.043197 5.34445,-2.707926 1.53818,-1.64444 1.90239,-2.879302 1.73443,-5.88066 -0.14827,-2.649343 -0.91004,-4.43221 -2.48438,-5.814504 -1.68207,-1.476878 -2.97637,-1.898036 -5.81515,-1.892214 -3.40391,0.007 -5.091686,0.525823 -6.746889,2.074072 -1.785157,1.669806 -2.288896,3.310157 -2.065422,6.725751 0.203452,3.109578 1.000851,4.868223 2.780512,6.132353 1.151521,0.817949 4.30424,1.821703 5.135779,1.635116 0.21829,-0.04898 1.17079,-0.171374 2.11667,-0.271988 z m -3.265935,-5.181876 c -1.017535,-0.59148 -1.550943,-3.0603 -0.983605,-4.552511 0.450859,-1.185851 1.326388,-1.762423 2.67625,-1.762423 2.42631,0 3.57781,1.869676 2.79978,4.545995 -0.31303,1.076792 -0.59599,1.528864 -1.10093,1.758933 -0.84272,0.383967 -2.738539,0.38956 -3.391495,0.01001 z"
         id="path18"
         transform="matrix(0.27331318,0,0,0.27331318,137.19769,19.101371)" /></g></g></svg>
